<?xml version="1.0" encoding="UTF-8" standalone="no"?>
<!-- Created with Inkscape (http://www.inkscape.org/) -->
<svg
   xmlns:svg="http://www.w3.org/2000/svg"
   xmlns="http://www.w3.org/2000/svg"
   version="1.0"
   width="566.92914"
   height="637.79529"
   id="svg1891">
  <defs
     id="defs1893">
  
  
 
   
   
   
   
   
   
   
   
   
   
   
   
  
    
    
   </defs>
  <g
     id="layer1">
    <g
       id="g3004">
      <path
         d="M 17.716244,454.50755 C 17.716244,362.25224 92.527856,287.46578 184.69281,287.46578 C 276.97328,287.46578 351.77427,362.25224 351.77427,454.50755 C 351.77427,546.76286 276.97328,621.50963 184.69281,621.50963 C 92.527856,621.50963 17.716244,546.76286 17.716244,454.50755 L 17.716244,454.50755 z "
         style="fill:#ed1c23;fill-opacity:1;fill-rule:evenodd"
         id="_46749016" />
      <path
         d="M 37.936834,454.50755 C 37.936834,373.39027 103.75234,307.62153 184.88415,307.62153 C 265.98017,307.62153 331.7847,373.39027 331.7847,454.50755 C 331.7847,535.6142 265.98017,601.32873 184.88415,601.32873 C 103.75234,601.32873 37.936834,535.6142 37.936834,454.50755 L 37.936834,454.50755 z "
         style="fill:white;fill-opacity:1;fill-rule:evenodd"
         id="_45949336" />
      <path
         d="M 48.843487,454.49338 C 48.843487,379.36393 109.76923,318.45271 184.88415,318.45271 C 259.96328,318.45271 320.88903,379.36393 320.88903,454.49338 C 320.88903,529.62672 259.96328,590.51243 184.88415,590.51243 C 109.76923,590.51243 48.843487,529.62672 48.843487,454.49338 L 48.843487,454.49338 z "
         style="fill:#ed1c23;fill-rule:evenodd"
         id="_46928568" />
      <path
         d="M 171.27963,371.6544 L 180.88659,357.36035 L 184.8838,408.18094 L 189.00148,357.36035 L 198.59321,371.6544 L 209.65399,320.72574 L 216.18856,290.63811 L 233.83423,371.6544 L 243.45147,357.36035 L 260.11813,567.43983 L 260.11813,567.81826 C 238.56632,582.1605 212.69805,590.51456 184.88274,590.51456 C 157.09435,590.51456 131.25337,582.18424 109.71502,567.87956 L 109.71502,567.43983 L 126.44333,357.36035 L 136.06447,371.6544 L 153.6701,290.63811 L 171.27963,371.6544 z M 260.11813,567.43983 L 260.11813,567.43983 z M 109.71502,567.43983 L 109.71502,567.43983 z "
         style="fill-rule:evenodd"
         id="_93044744" />
      <polygon
         points="9223460,12616800 8618650,10523800 1150480,12624100 1612910,14755500 9223460,12616800 "
         transform="matrix(3.543307e-5,0,0,3.543307e-5,-2.914002e-4,4.756265e-4)"
         style="fill:white;fill-opacity:1;fill-rule:evenodd"
         id="_92939432" />
      <path
         d="M 327.78324,366.70086 C 324.96631,363.81873 322.45659,359.87184 322.45659,359.87184 C 292.35088,316.23354 241.92395,287.50476 184.80833,287.50476 L 184.516,287.87291 C 182.2986,288.32043 180.00537,289.70763 176.85927,291.49133 C 171.77463,294.15307 166.426,294.33378 161.17482,294.6013 C 156.9714,294.33378 159.88931,289.10811 157.32892,289.98933 C 154.35998,290.80535 147.80876,293.04437 144.99573,294.82878 C 144.72821,301.28964 125.17199,308.04283 114.62286,302.9472 C 115.85805,287.46472 141.56793,274.037 178.35065,268.4935 C 201.28435,254.82413 204.53073,251.25602 219.61565,237.87933 C 226.3947,231.86598 229.51458,229.39559 231.70718,228.93708 C 232.68939,228.5289 231.99951,227.92972 231.20864,227.90421 C 229.14644,227.01236 228.16423,225.59645 227.39888,223.95307 C 226.21399,221.4072 227.00486,218.38795 225.29663,216.79559 C 223.27057,215.41937 220.80018,214.41165 220.54789,211.06004 C 220.43203,209.36669 220.30553,206.66527 217.84612,206.47394 C 214.42966,206.57492 213.20899,207.31512 212.82632,200.28342 C 212.64561,197.22484 212.75014,192.26953 211.15777,192.13984 C 208.86455,191.91236 206.59648,199.60842 204.12254,218.52543 C 202.3275,232.2848 194.1336,247.85409 191.30533,245.89287 C 188.56777,243.50964 190.87234,229.30594 186.69372,222.97476 C 186.05805,221.84055 188.04407,238.55433 175.43274,251.44736 C 173.6997,253.32212 172.20762,252.21342 172.20762,251.25602 C 172.69199,247.77862 174.3747,227.56157 170.36226,221.36752 C 167.18817,216.28642 163.7749,216.0189 158.78061,213.85216 C 154.67782,211.89094 151.27589,206.66527 150.091,202.67834 C 146.75427,189.74563 152.62624,176.01106 153.76045,171.60496 C 154.86915,167.34732 159.39077,148.13728 158.25691,140.12339 C 156.42219,134.02039 153.61978,128.47689 157.65738,119.05063 C 158.25691,118.06843 158.74057,117.3424 157.93907,116.51539 C 151.92573,111.88925 147.88813,108.2198 146.19089,99.061064 C 145.18707,93.658584 146.01408,91.264017 143.95187,86.58756 C 143.23648,84.712796 141.60408,83.654765 142.16746,82.433741 C 143.45333,81.145041 145.36388,81.145041 147.12278,81.184371 C 157.09719,82.84193 163.0999,88.432914 166.87033,94.525276 C 168.17037,91.964528 169.21423,90.397324 171.03797,88.613623 C 170.62978,82.433741 173.49384,77.746655 177.59592,73.719332 C 176.89541,66.063309 182.12108,61.386498 185.81604,59.692797 C 186.40069,53.141577 190.32703,48.327285 196.54234,43.968309 C 200.77092,34.274884 207.01529,31.140121 210.68439,28.886577 C 214.58486,26.745357 220.1397,24.220751 230.02376,22.707404 C 234.29273,22.169176 235.19592,24.820278 233.20955,26.643664 C 226.78801,31.826459 211.8186,47.828742 205.71525,65.550238 C 207.65096,62.123151 212.31714,56.265002 218.12427,53.512915 C 221.3997,44.975671 229.34876,40.56638 234.16624,38.211144 C 236.97998,33.064845 243.17368,26.603979 252.16588,24.679255 C 262.28557,16.015515 278.76832,16.246538 280.7834,16.297208 C 284.13502,16.463034 288.32427,16.437877 288.99927,19.482286 C 290.17352,23.892286 239.99888,49.703152 232.30671,101.75894 C 232.03919,104.09185 244.62502,89.898781 257.78557,92.04071 C 258.52577,92.369174 259.08561,92.907048 259.44313,93.658584 C 265.57199,106.89425 259.75033,119.05063 261.22683,119.95382 C 287.25561,135.25559 292.91108,154.60949 304.11041,165.56681 C 319.88521,180.59752 338.34336,180.02669 353.78616,191.17216 C 368.47706,201.52996 385.29253,236.41311 393.84076,243.61417 C 430.84068,269.94945 462.00407,293.04437 486.73174,332.46401 C 490.00753,337.59933 492.07292,340.66925 498.41474,341.25779 C 512.18899,340.91125 523.5545,324.5798 532.75257,309.73653 C 533.2621,308.96019 533.91229,308.72952 534.47178,309.17704 C 535.55568,310.00405 534.95615,312.20692 536.10418,312.34795 C 539.10926,312.76677 541.65867,303.77421 544.72824,301.79881 C 545.95281,300.93177 547.773,301.67232 547.36481,303.22535 C 546.46198,306.65244 544.30623,310.65389 544.1684,313.26531 C 544.1684,313.91515 544.72824,313.77448 545.06096,313.35566 C 545.63107,312.67996 546.41131,312.4383 547.03281,312.5648 C 548.33284,312.84649 548.20635,314.50051 547.83784,315.31689 C 546.70363,317.43259 545.72143,319.58551 545.58076,322.07007 C 545.53009,324.17161 547.19863,322.65543 548.20635,323.25496 C 549.63288,323.88992 549.34056,325.58397 548.5745,327.61003 C 544.72824,336.12248 532.93009,367.29684 504.88659,363.25889 C 501.30749,362.63456 499.47277,360.02314 500.55666,364.03558 C 507.71804,388.19243 493.60044,440.63161 499.58863,465.60483 C 501.30749,472.73751 509.42237,478.52302 511.90729,482.25342 C 513.37351,483.65834 515.06757,486.62727 515.43572,489.93885 C 517.32466,511.23909 511.90729,513.26515 521.77009,552.95196 C 522.5971,556.21322 522.49611,558.59645 520.80241,560.50735 C 519.04351,562.51853 517.72859,561.64086 517.19462,563.52625 C 515.90875,576.3183 510.63596,586.43373 503.10607,589.16066 C 492.70859,592.77908 485.91926,587.87515 487.43226,579.10971 C 490.37568,563.25944 497.98139,560.22566 500.63249,544.11105 C 502.63304,530.44168 494.36615,516.41125 491.54922,511.64727 C 488.94915,507.26668 482.33627,495.35231 474.15655,487.78629 C 473.06237,486.44657 472.1847,486.77857 471.80167,487.91279 C 468.68178,497.76141 471.95367,517.9781 473.3547,523.20412 C 475.66245,531.58653 478.29867,541.89365 477.80048,548.72302 C 477.35615,555.42554 473.94359,559.52444 470.75816,562.62377 C 465.88966,567.33637 468.99962,575.22377 459.86214,579.03034 C 453.14863,581.82176 448.21848,580.61208 445.95076,579.43853 C 443.84923,578.10235 442.84151,577.51735 442.61403,574.94208 C 442.5995,571.87215 442.91734,567.47739 445.9256,563.71759 C 450.81926,557.61424 457.31627,548.96467 458.45048,532.69523 C 460.57753,503.21456 434.35812,469.64208 432.70056,469.2594 C 431.01714,468.87672 431.60604,470.35747 430.26631,469.97479 C 427.66978,467.84739 424.57115,459.90932 421.78293,456.94109 C 420.29155,454.86436 416.53175,455.76684 415.93612,452.79861 C 415.61438,450.53054 414.68639,448.22598 412.83749,447.2583 C 411.6271,446.54326 410.74978,447.76747 409.65171,447.16795 C 406.44147,444.65822 406.31497,435.63661 405.27112,435.06613 C 404.12308,434.56759 403.05371,435.48495 402.23734,435.06613 C 399.89379,434.05842 400.45364,426.50338 398.58277,421.14058 C 397.71572,418.33783 394.86265,418.42464 394.05761,415.03688 C 392.81179,408.90802 392.97442,400.9448 386.39025,397.91456 C 379.63706,394.97114 375.33194,399.00909 372.12171,394.14094 C 370.42411,392.05322 370.7058,388.61125 366.33584,388.1531 C 364.01746,386.99338 363.08557,384.15519 360.99785,384.79086 C 359.86435,385.12322 360.80651,387.31121 358.47395,388.79196 C 355.33919,389.00881 352.19309,380.53641 347.84864,380.90456 C 346.40793,381.45377 345.84809,383.09716 344.2047,383.19814 C 342.33383,383.2885 342.17864,373.71767 336.06431,371.41381 C 334.95561,371.00562 334.15376,373.03169 333.21124,371.68098 C 333.21124,371.68098 330.68734,369.77043 327.78324,366.70086 z "
         style="fill-rule:evenodd"
         id="_47868120" />
      <path
         d="M 180.24703,76.598978 C 182.87262,73.298033 188.1851,71.795316 187.95443,70.737639 C 187.49522,69.784135 185.52337,70.650474 184.04262,70.737639 C 183.43246,70.838624 182.59092,70.686616 182.68128,69.949962 C 185.16549,61.261065 193.66376,59.69386 196.23868,56.941773 C 196.54234,56.407088 196.23868,56.407088 195.57431,56.035041 C 194.22396,55.973742 192.08203,57.450947 192.08203,56.161537 C 193.08974,47.501341 203.63888,43.318821 205.6288,42.647719 C 206.1486,42.19949 205.67911,41.589333 205.02927,41.484805 C 204.12254,41.589333 203.39651,42.134648 203.27037,41.040475 C 204.30325,36.735357 210.0349,33.293743 213.72915,31.459018 C 217.49923,29.905987 224.96781,27.612758 224.96781,28.757601 C 224.96781,29.216105 219.10647,32.058546 217.17077,34.951656 C 215.56352,37.330987 214.09766,38.887916 213.97116,42.647719 C 207.98333,45.587246 205.02927,52.225277 204.62108,58.54512 C 200.37762,60.73701 197.10183,68.444411 198.51738,71.618505 C 193.61309,76.371497 191.20435,83.251182 191.47187,90.130867 C 180.87207,104.00256 184.00683,109.28988 195.70045,113.58437 C 197.42356,114.13323 199.06624,114.23421 199.39541,113.40685 C 199.8036,112.57665 198.39124,112.06748 197.86789,110.8826 C 191.5112,96.704056 199.5251,89.618151 210.7099,84.854883 C 211.59112,84.436064 210.92675,83.438978 209.61537,83.468033 C 206.59648,83.438978 203.88053,84.204686 203.49785,83.251182 C 201.869,78.610867 213.88435,69.0326 219.79246,67.209214 C 222.31707,66.468663 221.2484,65.207954 220.21518,65.37449 C 218.62281,65.233466 216.18856,66.150828 215.3977,64.088624 C 216.90396,58.862955 231.29899,51.947128 233.41541,50.711931 C 234.72644,49.88138 235.27494,48.404175 228.91506,49.704215 C 228.3049,49.794569 227.65506,49.794569 227.93675,48.927876 C 229.14644,45.153545 242.61384,39.895632 249.46801,37.511695 C 250.54801,37.013152 250.85521,35.319451 247.61911,35.95512 C 246.45974,36.135829 244.31852,36.912168 243.89899,36.045475 C 244.31852,30.949845 259.2121,27.013231 264.52494,25.865199 C 265.72399,25.460199 265.94014,24.770672 264.89628,24.261144 C 263.21356,23.762955 260.53765,25.088152 261.556,23.304451 C 265.57199,20.783389 276.15726,20.743703 279.84088,21.332601 C 280.87376,21.520042 281.10124,21.75142 281.20222,21.96827 C 280.06836,24.644176 262.23136,29.855672 260.02848,40.567443 C 254.69049,42.784845 249.46801,47.86949 248.85431,52.225277 C 246.04092,53.741459 240.42159,58.368309 240.08923,64.738821 C 237.01931,67.032049 228.98061,74.164726 231.65651,82.842993 C 227.36273,86.866418 224.03592,90.994017 224.20246,102.30921 C 224.2673,106.20933 219.20746,112.52563 213.97116,113.99185 C 212.50848,114.59138 213.09348,115.77626 214.15187,116.05795 C 222.90242,118.62933 231.04281,113.89087 234.21726,110.8826 C 244.31852,101.25083 251.04655,97.787245 255.59297,97.213229 C 256.42388,96.996379 256.42388,97.595906 256.55037,98.05441 C 257.20021,100.57547 258.76777,106.70398 256.57588,115.3174 C 253.70829,126.09402 245.46691,131.08902 243.12301,134.02146 C 242.71482,134.44028 244.28238,139.01575 243.45147,141.35965 C 242.49797,144.33921 243.56734,146.17394 244.65053,146.63279 C 247.64462,147.73016 249.76104,136.59283 251.54474,136.87453 C 252.98226,136.95035 252.7399,139.38461 254.45947,140.26228 C 255.36549,140.58331 256.70167,140.30161 256.85758,139.29425 C 257.07372,136.17402 258.23344,128.56831 258.98462,127.75193 C 259.53348,127.06559 261.22683,130.50402 261.32852,132.60591 C 261.45502,141.26929 256.57588,148.63335 259.44313,154.61055 C 260.06781,155.88189 261.50533,155.7809 262.51305,154.83803 C 265.12447,152.03528 266.90817,141.85465 272.73017,140.58331 C 280.56655,138.83575 288.32427,160.33087 282.79494,166.06252 C 280.1084,168.34476 276.75679,166.34421 273.41935,168.17858 C 269.84096,170.2663 270.1588,178.24405 267.69903,181.55563 C 266.25797,183.0222 264.52494,183.24968 261.16199,183.53138 C 254.05482,184.06535 256.21801,204.37275 257.31608,207.99189 C 258.01659,210.14374 259.53348,209.73626 260.53765,208.9989 C 261.556,208.13256 262.33553,203.95394 262.53821,200.05382 C 262.83088,198.83315 264.98309,198.32008 266.52549,196.81771 C 268.20821,195.51768 267.33053,194.10531 268.3347,192.83079 C 269.78675,191.22354 271.21647,192.63945 272.38683,190.84405 C 275.45675,188.29464 273.26415,184.29283 275.74907,182.61401 C 279.38238,180.2159 282.62876,181.41496 285.8397,177.88618 C 287.8151,175.69429 288.07128,171.05716 290.83399,170.2663 C 305.55112,169.90842 320.18852,186.86811 322.69824,191.91342 C 329.97549,206.97283 318.32828,229.71449 326.29187,234.07027 C 336.3173,239.89547 334.15376,251.20677 333.04505,254.04921 C 330.87868,259.83437 314.85088,267.15838 312.77415,280.53508 C 311.74092,293.37779 318.44415,290.71606 318.91718,289.10917 C 319.42635,287.50582 319.88521,285.40358 320.67218,283.79633 C 321.29722,282.38468 323.25809,283.00937 323.48911,284.38523 C 323.8725,285.58074 326.62387,289.022 330.68734,281.45244 C 333.27254,276.64948 340.19261,270.45968 345.36407,266.89122 C 350.47423,263.27279 351.69525,251.94697 352.57576,249.37204 C 353.25147,247.12913 355.12234,247.12913 355.40403,244.74909 C 355.58084,242.26488 350.93309,234.07027 353.6958,228.1983 C 354.99584,226.24771 358.10545,224.84598 360.42383,227.56264 C 362.86872,230.36468 358.92147,239.57445 363.31694,239.79059 C 367.07604,239.89547 367.49486,235.48618 370.75612,235.76787 C 374.06805,236.41417 368.09438,248.55567 371.36627,250.43008 C 373.38171,251.25708 375.89143,250.28941 376.92112,252.30484 C 377.85265,255.6522 371.85064,261.7559 377.02564,261.7559 C 431.84804,260.78787 451.86312,303.91629 448.34497,311.7998 C 446.69096,314.78326 440.08942,310.32295 439.13592,313.35673 C 434.1271,330.22606 445.44159,343.00322 448.71702,345.2061 C 449.68505,345.75531 451.40426,344.97862 451.27777,342.86291 C 450.72891,338.04862 448.06718,335.48397 448.58734,330.7207 C 449.51923,322.33866 468.24808,327.51011 469.19096,333.8948 C 469.55911,336.27484 469.6856,338.23606 471.80167,340.25149 C 474.4634,342.77255 480.85942,339.93366 481.48446,345.5133 C 482.28596,356.34059 468.78277,356.96562 459.42879,363.67877 C 454.97237,367.10657 455.99072,369.4898 459.75052,370.72499 C 464.25761,371.92405 471.4445,370.63818 475.07391,375.96165 C 480.23474,383.33988 473.45568,398.77877 473.06237,405.27968 C 472.6797,411.89184 484.51753,431.1809 484.75989,441.02952 C 485.59753,445.9448 482.21048,448.59554 478.04249,444.5583 C 474.01907,440.33964 469.80111,433.84263 466.66635,428.9635 C 465.76387,427.43243 463.37993,427.33145 463.4306,430.49172 C 463.37993,439.0148 503.76726,491.58294 504.7856,500.19637 C 505.71749,504.72897 503.19289,508.57912 504.26544,512.98452 C 504.61942,514.27393 506.27698,513.53373 506.40348,514.56625 C 506.63415,517.48487 503.66592,521.90515 507.88422,524.02121 C 509.98576,529.80318 507.88422,532.21192 508.97804,536.99007 C 509.52726,541.75405 511.7808,548.36621 512.29033,553.16952 C 511.15611,566.7379 505.95915,572.02523 501.81666,574.0403 C 498.26308,575.82082 496.78623,572.61377 497.10407,569.84786 C 498.04623,561.64192 507.14403,547.09168 503.51072,530.69574 C 494.18544,488.51338 449.04549,458.57066 441.50533,442.54287 C 439.08525,436.50436 430.43249,435.81838 429.93785,428.72184 C 429.08143,426.42826 426.80308,427.10397 424.86738,425.00173 C 423.23462,423.16771 423.28493,417.6235 421.54056,413.57137 C 421.03139,412.29684 419.44966,412.93641 418.28001,411.71184 C 411.85848,403.2646 413.23434,362.02476 407.51403,356.3948 C 403.29608,354.03637 400.00931,360.59822 394.75812,361.14354 C 390.73505,361.56625 384.09738,351.56598 381.66312,354.10122 C 379.68738,356.06244 380.5399,361.14354 380.69509,361.9344 C 380.89777,362.63562 381.90478,366.15307 380.5399,366.15307 C 379.31923,366.20338 377.53482,363.67877 372.45017,361.6024 C 369.06242,360.3672 365.83765,361.6024 364.26974,360.59822 C 360.80651,356.83913 364.38561,348.9659 358.5636,346.72299 C 356.93155,346.08732 356.63923,341.92003 355.79769,340.25149 C 354.99584,339.06696 353.3273,339.15342 352.57576,338.23606 C 350.99403,335.85602 349.88923,332.92393 349.17419,329.57586 C 348.58919,327.28263 343.26183,330.1357 342.85435,326.5024 C 342.33383,324.08303 339.4921,323.30633 337.28852,322.92366 C 334.59809,322.60582 335.72167,316.70834 333.40257,315.72543 C 332.39557,315.27791 332.02671,316.42665 330.97966,315.89196 C 329.89576,314.5409 330.10198,313.26637 328.73675,312.29834 C 327.59191,311.522 326.45769,312.84755 325.60553,311.89015 C 322.21423,307.7622 324.91565,300.83185 323.14647,298.78027 C 321.98675,297.50574 319.97167,298.9213 318.2025,297.40476 C 316.48293,296.07921 316.20124,293.91248 315.16872,293.60881 C 312.14911,293.5585 311.09108,293.00929 309.85588,291.4924 C 304.35206,283.79633 304.97675,274.94126 303.09206,271.79586 C 301.85616,269.71913 300.00761,268.43362 298.62041,272.32984 C 295.86832,279.03307 296.16135,304.00275 288.13293,307.39441 C 281.96793,310.42393 276.46447,299.78799 273.41935,297.90295 C 272.06899,297.17374 271.81281,299.43082 270.84443,299.52082 C 268.04238,298.42311 268.65254,295.07149 266.39899,293.74594 C 264.18159,292.77826 265.12447,295.88787 263.84923,295.6207 C 261.66053,293.60881 261.66053,288.20633 259.72128,287.24893 C 258.14309,286.63878 257.22573,288.4735 256.32289,287.69716 C 253.14809,284.94507 255.36549,278.80204 251.54474,276.86634 C 249.88683,276.33165 250.14372,279.12342 248.43549,278.33256 C 246.7921,277.73303 247.08478,269.03315 241.9888,269.87078 C 241.23797,269.95051 241.47962,268.76563 240.95628,268.30712 C 239.45356,268.11578 238.40651,270.21767 236.82797,268.86661 C 234.68675,266.01354 233.04336,264.63767 231.65651,263.57929 C 229.51458,261.7559 226.32951,264.04913 223.69329,262.07374 C 214.39352,257.99964 193.08974,274.26945 183.48277,283.79633 C 179.97986,280.53508 175.25203,283.97704 171.27963,284.38523 C 169.85309,284.7137 165.36797,284.52236 168.88152,279.66874 C 177.59592,270.45968 183.95581,270.91819 200.37762,259.18452 C 212.36746,250.39039 223.13344,241.81665 227.00486,239.29594 C 230.20447,237.63803 235.27494,236.27704 239.54037,241.86732 C 245.54238,249.70405 258.93395,262.85397 264.6401,265.41401 C 276.38828,270.51 276.97364,261.51354 278.40017,258.39366 C 279.66017,255.24756 280.44041,257.85897 280.36069,260.83854 C 280.33588,262.80295 281.0612,265.55504 282.66844,265.8222 C 285.87939,266.20169 285.91872,263.77063 286.37793,262.21441 C 290.04702,247.77968 304.25108,230.41571 309.85588,233.98346 C 313.97285,236.59488 316.39257,236.59488 317.36061,231.63956 C 318.44415,225.26905 313.52533,219.40771 312.19978,212.70449 C 310.81293,204.93295 311.66545,194.70484 308.69651,193.28964 C 306.96348,192.54909 304.58344,194.23181 303.24336,196.1172 C 301.45931,198.50079 301.45931,201.03602 300.86332,203.91425 C 300.55612,205.52149 294.09525,207.26586 293.3586,215.64791 C 293.28277,217.1648 290.83399,214.14555 289.07545,215.64791 C 285.4712,218.38901 286.12139,232.00807 284.96202,232.78441 C 283.62584,232.92543 281.99309,231.42271 281.44458,233.38393 C 281.73691,235.57653 280.51588,240.89929 279.45785,241.30748 C 278.58017,241.575 277.63801,240.4911 276.38828,241.21712 C 273.26415,243.83208 274.52805,247.45051 271.54529,250.90311 C 269.71057,253.14248 268.46474,251.57882 268.24789,249.60307 C 267.8149,246.22665 265.12447,241.18098 262.76923,238.78677 C 255.84986,231.63956 260.11813,219.72555 250.34604,214.77059 C 247.40262,213.31854 247.25061,211.89201 246.9186,209.24126 C 246.7921,206.3485 245.13419,204.33661 243.6173,203.95394 C 240.93077,203.1776 240.47191,201.72236 240.37092,199.83697 C 240.61293,194.74098 236.81734,194.52413 234.80191,194.10531 C 230.02376,193.64681 229.87246,192.7298 231.36419,180.81543 C 231.80817,177.93685 231.83368,174.62492 230.90498,171.92386 C 228.40588,168.25441 222.94175,170.59831 223.69329,164.5963 C 224.2673,160.6487 231.32451,155.51339 234.3434,152.26665 C 236.17813,150.21508 237.33714,144.88842 231.04281,146.17394 C 216.72325,149.9837 205.29608,175.35094 202.62053,180.2159 C 192.24785,199.2013 183.25529,206.75669 174.83321,209.68559 C 170.89695,211.0611 157.25309,212.35051 154.46096,198.97027 C 153.02026,191.95275 154.76817,185.35122 157.93907,174.35775 C 171.77463,126.27472 156.3212,135.44799 163.89077,119.44571 C 168.75502,113.99185 175.6751,114.74339 182.68128,113.89087 C 184.23431,113.68535 183.67411,111.65929 183.30596,111.06295 C 183.02427,110.51445 181.39577,109.82457 179.23931,109.41992 C 177.08675,109.0624 172.48931,104.97095 172.09246,100.57547 C 171.68781,95.761182 174.79388,92.778426 176.85927,90.676182 C 179.78852,87.783781 181.90494,87.465946 181.94108,86.830277 C 181.76392,84.255355 176.36073,87.873781 175.89159,86.830277 C 174.74285,82.842993 178.05478,79.174253 180.24703,76.598978 z M 165.3173,101.62287 C 165.12596,103.36724 165.12596,106.06831 167.45498,111.65929 C 165.12596,111.9913 163.71006,114.03189 161.684,112.89768 C 155.31348,109.41992 151.74892,102.94488 149.68282,96.396851 C 148.34663,92.6413 148.47313,88.166458 146.37124,84.764529 C 157.37888,85.490552 165.4438,100.33347 165.3173,101.62287 z M 461.26352,502.22208 C 462.87076,502.2731 462.63974,501.70972 464.05564,502.22208 C 465.31564,502.2731 465.2795,507.67204 465.09879,510.46346 C 464.79548,512.1972 464.3873,515.14062 466.22202,516.4768 C 467.86541,517.87783 464.05564,523.07479 466.80702,525.58487 C 468.33454,527.69031 465.09879,533.21928 467.57308,536.26369 C 468.78277,536.26369 469.6856,536.62156 470.3358,537.61475 C 469.29194,544.01078 472.13438,554.1007 471.1373,557.01542 C 468.33454,561.42471 466.22202,560.96656 463.82391,568.21475 C 460.23419,575.22448 450.07871,570.85452 452.06509,565.19586 C 459.25198,553.04302 461.8882,539.51078 462.27123,533.59877 C 463.47029,518.2605 455.38056,493.87582 454.488,490.47389 C 454.28249,487.40432 454.95785,485.5696 457.36659,488.32168 C 460.94568,493.91196 459.66017,501.88972 461.26352,502.22208 z M 167.18817,276.86598 C 163.78624,279.40122 161.50718,282.60082 159.63242,286.08956 C 155.55549,286.72878 148.9823,289.48086 144.28033,291.59303 C 142.54695,292.49976 135.9486,293.00893 129.97565,293.69527 C 129.06892,293.60846 128.84144,293.04507 128.84144,292.31905 C 128.35778,287.78326 156.42219,276.3313 167.18817,275.22259 C 168.17037,275.22259 168.75502,275.69563 167.18817,276.86598 z "
         style="fill:white;fill-opacity:1;fill-rule:evenodd"
         id="_90523512" />
      <path
         d="M 254.11647,103.36724 C 254.716,103.19043 254.91797,103.5841 254.91797,103.82575 C 254.45947,111.65929 246.14226,127.34374 235.32596,130.13551 C 234.68675,130.26201 234.29309,130.18618 234.06525,129.58665 C 233.08305,124.13315 236.52112,114.8589 245.31525,111.48213 C 249.67069,109.78843 251.73643,106.89567 254.11647,103.36724 z "
         style="fill-rule:evenodd"
         id="_47053528" />
      <path
         d="M 420.92686,278.80204 C 423.6786,279.66874 424.82698,282.4963 423.8593,284.11417 C 422.72509,286.72913 420.39218,288.51283 420.34186,291.02326 C 420.29119,293.13578 419.92234,294.42165 418.23962,294.97051 C 415.1449,295.30287 413.33497,288.88169 410.56871,293.32712 C 409.06671,295.6207 405.94612,294.05315 405.53793,292.77826 C 404.98907,290.80641 403.8049,288.79133 401.81816,288.70098 C 395.37218,288.51283 393.76494,278.42291 394.79745,275.69598 C 399.76694,263.99811 412.01013,275.72149 420.92686,278.80204 z "
         style="fill-rule:evenodd"
         id="path2921" />
      <path
         d="M 217.7051,134.16213 C 218.19974,136.17402 217.83159,136.31468 216.11203,135.1663 C 210.45655,129.24331 205.62844,130.77118 202.20065,132.56976 C 200.52856,133.25539 200.01939,133.20508 200.50376,131.68854 C 205.7149,123.71398 215.206,127.65094 217.7051,134.16213 z "
         style="fill-rule:evenodd"
         id="path2919" />
      <path
         d="M 188.31124,135.25665 C 191.15368,139.34492 189.91848,145.71543 187.44419,150.48224 C 185.48297,154.15169 182.27274,160.02437 181.01203,162.58441 C 180.48868,164.12646 179.36935,164.22779 178.43746,163.80898 C 177.49459,163.62827 181.90459,156.29008 183.15396,147.69083 C 183.66313,144.1624 182.72026,139.01575 185.29163,135.1663 C 186.17285,133.89106 187.49486,134.29925 188.31124,135.25665 L 188.31124,135.25665 z "
         style="fill-rule:evenodd"
         id="path2917" />
      <path
         d="M 212.23707,139.10291 C 214.30281,143.88071 209.24368,146.22461 206.28892,146.81279 C 204.21254,147.18165 202.65951,146.59665 200.90061,145.44791 C 199.93293,144.7474 200.45309,144.25276 199.69092,143.88071 C 198.10919,143.7939 198.49187,144.79807 196.78364,145.20626 C 195.59911,145.34693 195.49813,144.79807 196.289,143.60256 C 198.21018,140.40295 199.26856,138.14941 202.44301,136.87453 C 205.38289,135.67547 209.70183,134.44028 212.23707,139.10291 z "
         style="fill-rule:evenodd"
         id="path2915" />
      <path
         d="M 195.64943,159.18248 C 198.10919,168.76358 196.289,172.47307 194.08222,174.76594 C 193.2701,175.5026 188.1199,176.41996 187.44419,169.82197 C 190.01947,166.71272 191.59801,161.98488 193.1397,158.63398 C 194.2236,156.48142 194.91277,156.34039 195.64943,159.18248 z "
         style="fill-rule:evenodd"
         id="path2913" />
      <path
         d="M 176.55242,185.66905 C 175.43238,191.6824 172.97333,194.74098 168.68982,195.70901 C 163.7097,196.30854 161.59718,190.80472 162.23285,190.84405 C 167.08648,191.72209 172.20726,188.97 175.25167,185.03338 C 175.99258,183.98953 176.73242,184.71555 176.55242,185.66905 z "
         style="fill-rule:evenodd"
         id="_90579752" />
      <path
         d="M 537.4804,334.89897 C 538.34355,337.18157 535.92383,340.07078 533.41375,342.86255 C 530.9182,345.75531 520.21387,353.32133 511.28261,352.90216 C 508.80159,352.53401 506.12568,349.83259 506.96722,346.53165 C 507.83037,343.73988 516.44344,343.00322 523.08147,340.70999 C 527.8993,339.06661 530.19253,338.04826 534.01328,335.11582 C 536.42237,333.29562 536.98222,334.3898 537.4804,334.89897 z "
         style="fill:white;fill-opacity:1;fill-rule:evenodd"
         id="_92920568" />
      <path
         d="M 90.556006,442.91385 L 125.25915,432.13334 L 119.12994,497.46873 L 94.886281,504.2329 L 99.028761,459.8335 L 88.606124,463.4381 L 90.556006,442.91385 z M 155.23766,477.84731 C 154.6275,484.61184 147.44061,490.38318 140.96841,492.35893 C 134.37041,494.06716 128.01053,492.18141 128.6501,485.35204 C 129.28577,478.2555 136.48329,472.2783 142.99447,470.58495 C 149.45533,468.72472 155.87687,470.82696 155.23766,477.84731 z M 171.22931,419.22968 L 216.18856,406.4883 L 214.52002,425.34401 L 194.03191,430.94881 L 193.43238,437.82885 L 211.41041,432.83385 L 209.78191,449.65251 L 191.84002,454.73432 L 189.66266,477.60566 L 165.03561,484.53566 L 171.22931,419.22968 z M 274.12057,416.14558 C 270.50143,413.72621 265.84978,412.14377 260.3208,413.672 C 252.98226,415.74838 246.45974,422.98594 245.75923,430.1218 C 245.10939,437.24385 250.93069,441.02846 258.23344,438.96271 C 263.86376,437.42066 268.54092,433.84157 272.82053,428.96243 L 269.78675,453.60365 C 265.72399,456.51838 256.55037,459.8335 252.20592,461.05417 C 232.98207,466.43184 219.33396,456.20054 221.09321,437.63751 C 222.85175,418.57984 239.7714,399.00909 259.53348,393.41491 C 265.02277,391.84771 270.60242,391.172 275.66226,391.58019 L 274.12057,416.14558 z "
         style="fill:#ed1c23;fill-rule:evenodd"
         id="_90945896" />
      <path
         d="M 168.17037,503.08629 C 167.91384,505.68672 166.07947,508.19645 164.06793,508.96251 C 162.15703,509.40684 160.78116,507.6731 160.95797,505.06168 C 161.08447,502.38578 162.91919,499.87605 164.89494,499.48204 C 166.921,498.69117 168.38722,500.48975 168.17037,503.08629 z M 178.60364,500.06739 C 178.42683,502.71779 176.61762,505.24239 174.60254,505.9181 C 172.591,506.5644 171.27963,504.72968 171.45679,502.22314 C 171.72396,499.60853 173.40667,497.08783 175.43274,496.46279 C 177.39396,495.78779 178.87116,497.49601 178.60364,500.06739 z M 185.48333,527.56168 C 184.33848,541.38625 175.54506,552.0757 165.55931,554.78845 C 155.55549,557.61601 148.13049,551.42621 149.30014,537.61582 C 150.40884,524.12326 159.28978,513.10109 169.26419,510.28806 C 179.13833,507.48176 186.56722,514.0833 185.48333,527.56168 z M 161.22549,534.51719 C 160.79215,539.51184 163.0999,542.12609 166.62797,541.22007 C 170.20707,540.21235 173.04951,536.08475 173.46833,531.28145 C 173.851,526.54263 171.81431,523.38306 168.06939,524.49176 C 164.36026,525.53562 161.64785,530.04625 161.22549,534.51719 z M 191.43573,504.78389 L 203.29553,501.57294 L 200.86128,530.76129 L 210.81088,527.98405 L 209.66604,541.85574 L 187.82793,547.80743 L 191.43573,504.78389 z M 216.34057,497.81385 L 227.77021,494.78007 L 236.43466,515.70117 L 236.70147,515.70117 C 236.58632,512.09727 236.35884,508.57983 236.65116,504.8342 L 237.796,491.95251 L 249.136,488.83192 L 245.54238,531.81932 L 234.16624,534.93991 L 225.65451,515.28235 L 225.19529,515.36916 C 225.33667,518.26157 225.46246,520.89814 225.19529,523.84157 L 224.03592,537.86845 L 212.78628,540.92775 L 216.34057,497.81385 z M 120.35451,524.59275 L 131.86034,521.37117 L 129.97565,540.16168 L 130.24246,540.08586 C 130.7123,538.2405 131.53931,536.49223 132.33018,534.70853 L 139.19923,519.30542 L 152.15321,515.73731 L 140.17754,539.51184 L 149.68282,558.53338 L 135.9486,562.38318 L 131.29695,550.82668 C 130.75163,549.41078 129.87041,548.09975 129.84526,546.44184 L 129.51679,546.53219 L 128.22738,564.52121 L 116.72475,567.65597 L 120.35451,524.59275 z "
         style="fill:white;fill-opacity:1;fill-rule:evenodd"
         id="_92552856" />
    </g>
  </g>
</svg>
